Coordinates
version=1
nRows=24
nColumns=38
inDegrees=no

Units are S.I. units (second, meters, Newtons, ...)
If the header above contains a line with 'inDegrees', this indicates whether rotational values are in degrees (yes) or radians (no).

endheader
time	pelvis_tilt	pelvis_list	pelvis_rotation	pelvis_tx	pelvis_ty	pelvis_tz	hip_flexion_r	hip_adduction_r	hip_rotation_r	knee_angle_r	ankle_angle_r	subtalar_angle_r	mtp_angle_r	hip_flexion_l	hip_adduction_l	hip_rotation_l	knee_angle_l	ankle_angle_l	subtalar_angle_l	mtp_angle_l	lumbar_extension	lumbar_bending	lumbar_rotation	arm_flex_r	arm_add_r	arm_rot_r	elbow_flex_r	pro_sup_r	wrist_flex_r	wrist_dev_r	arm_flex_l	arm_add_l	arm_rot_l	elbow_flex_l	pro_sup_l	wrist_flex_l	wrist_dev_l
1.53	0.333857	1.33486	-2.10024	0.783278	0.144676	0.899154	-0.477546	-0.172548	-0.253558	0.506072	0.272018	0	0	0.224221	0.109162	-0.342713	0.229847	-0.191764	0	0	-0.273554	-0.136464	0.172498	0.59453	-0.585424	0.398095	0.989395	0.762494	0	0	0.443139	-0.32029	0.00450227	1.28353	1.5708	0	0
1.54	0.365695	1.33439	-2.12985	0.784479	0.13088	0.899509	-0.443932	-0.197064	-0.256533	0.588222	0.236081	0	0	0.23578	0.115227	-0.34836	0.272322	-0.18346	0	0	-0.267919	-0.142578	0.170004	0.579793	-0.572019	0.299139	0.950423	0.165616	0	0	0.438557	-0.315748	0.00119245	1.28219	1.5708	0	0
1.55	0.385943	1.32787	-2.14607	0.786029	0.117449	0.900767	-0.416153	-0.221328	-0.243391	0.66581	0.183739	0	0	0.233148	0.125583	-0.351263	0.302441	-0.163049	0	0	-0.2722	-0.145323	0.163613	0.588751	-0.585295	0.399723	0.990568	0.75821	0	0	0.43422	-0.313328	-0.00202883	1.27984	1.5708	0	0
1.56	0.409762	1.32376	-2.16416	0.78756	0.104223	0.902159	-0.377934	-0.244432	-0.235852	0.750439	0.113512	0	0	0.226882	0.137478	-0.353516	0.318677	-0.154503	0	0	-0.27363	-0.149186	0.155438	0.588583	-0.58504	0.404706	0.992271	0.762794	0	0	0.430271	-0.311049	-0.00924454	1.27853	1.5708	0	0
1.57	0.436258	1.32129	-2.18397	0.789094	0.0911065	0.903604	-0.333959	-0.265603	-0.223824	0.834318	0.0323892	0	0	0.21812	0.150185	-0.354049	0.325531	-0.153201	0	0	-0.272519	-0.154307	0.147664	0.579283	-0.574855	0.321562	0.953044	0.18685	0	0	0.42844	-0.312653	-0.00664444	1.27807	1.5708	0	0
1.58	0.44963	1.31697	-2.191	0.790642	0.0782661	0.905143	-0.290811	-0.283157	-0.207172	0.914572	-0.0539298	0	0	0.20577	0.159913	-0.354017	0.334445	-0.142456	0	0	-0.276134	-0.154315	0.138444	0.588443	-0.585419	0.417762	0.990733	0.772212	0	0	0.425524	-0.316619	-0.00587333	1.2798	1.5708	0	0
1.59	0.455958	1.31416	-2.19201	0.791887	0.0655426	0.906727	-0.245497	-0.294834	-0.184123	0.990398	-0.136021	0	0	0.195142	0.165406	-0.351169	0.347532	-0.125291	0	0	-0.278397	-0.153729	0.131521	0.588869	-0.585767	0.420715	0.990066	0.769274	0	0	0.424337	-0.321599	-0.00136143	1.28171	1.5708	0	0
1.6	0.464394	1.31205	-2.19622	0.792903	0.0529123	0.908083	-0.19402	-0.308948	-0.180555	1.06978	-0.210479	0	0	0.187855	0.169598	-0.346729	0.364925	-0.105847	0	0	-0.279078	-0.153773	0.125587	0.587045	-0.58691	0.424968	0.995205	0.773759	0	0	0.423435	-0.328762	0.00573909	1.28431	1.5708	0	0
1.61	0.446192	1.32072	-2.18369	0.79164	0.0426364	0.908981	-0.0975752	-0.288943	-0.10339	1.23598	0.523599	0	0	0.194354	0.153307	-0.351563	0.394892	-0.0838873	0	0	-0.277666	-0.146305	0.130388	0.589432	-0.584652	0.423935	0.997257	0.77418	0	0	0.426776	-0.336495	0.0116755	1.28572	1.5708	0	0
1.62	0.427891	1.30437	-2.16006	0.792958	0.0295155	0.912401	-0.104302	-0.299028	-0.110196	1.20765	-0.261161	0	0	0.161023	0.165434	-0.339712	0.394702	-0.073737	0	0	-0.29473	-0.147647	0.120561	0.589673	-0.585615	0.42706	1.00197	0.764589	0	0	0.425174	-0.343207	0.016986	1.28998	1.5708	0	0
1.63	0.361537	1.27874	-2.10714	0.790673	0.0180891	0.917741	-0.101349	-0.297561	-0.0721847	1.22898	-0.308588	0	0	0.106868	0.163157	-0.353506	0.386602	-0.0638772	0	0	-0.328989	-0.148836	0.127688	0.595716	-0.583755	0.429597	1.00272	0.762639	0	0	0.429015	-0.350634	0.0202006	1.294	1.5708	0	0
1.64	0.395305	1.28735	-2.12688	0.79353	0.00587259	0.917913	-0.0402995	-0.296023	-0.0542714	1.30971	-0.223417	0	0	0.107731	0.17721	-0.328067	0.388526	-0.053904	0	0	-0.316623	-0.146015	0.111326	0.59503	-0.582274	0.431872	1.00165	0.759809	0	0	0.424198	-0.355243	0.021832	1.29679	1.5708	0	0
1.65	0.378084	1.28249	-2.10663	0.794255	-0.00583167	0.92071	-0.00720247	-0.289982	-0.0312421	1.35484	-0.176546	0	0	0.0800132	0.182703	-0.318817	0.377495	-0.0461435	0	0	-0.324253	-0.141095	0.104251	0.598665	-0.57932	0.431777	0.998638	0.748381	0	0	0.42215	-0.360203	0.023534	1.29932	1.5708	0	0
1.66	0.380043	1.27759	-2.1005	0.796627	-0.0179986	0.923393	0.020155	-0.300987	-0.0169996	1.37527	-0.183115	0	0	0.0512201	0.197687	-0.299515	0.358032	-0.043926	0	0	-0.328016	-0.138196	0.0923886	0.592371	-0.574128	0.359945	0.970638	0.214068	0	0	0.418727	-0.36146	0.0246974	1.30014	1.5708	0	0
1.67	0.358308	1.27655	-2.07107	0.798101	-0.0291196	0.926098	0.0518352	-0.290345	-0.00219899	1.40588	-0.14984	0	0	0.0269446	0.198765	-0.286166	0.347908	-0.0370165	0	0	-0.333946	-0.125581	0.0805962	0.605998	-0.578651	0.443908	0.999657	0.750601	0	0	0.415596	-0.363341	0.0217172	1.29904	1.5708	0	0
1.68	0.340044	1.27759	-2.04311	0.799759	-0.0400084	0.92872	0.0840303	-0.279741	0.00896144	1.42891	-0.121244	0	0	0.00635219	0.198406	-0.271837	0.339357	-0.0309402	0	0	-0.337212	-0.113568	0.0682037	0.609886	-0.57681	0.44674	0.998565	0.751039	0	0	0.414896	-0.364906	0.0208402	1.29674	1.5708	0	0
1.69	0.323261	1.27827	-2.01702	0.80109	-0.0507104	0.931366	0.115065	-0.269203	0.0192012	1.44633	-0.0939528	0	0	-0.0139727	0.19686	-0.260716	0.331065	-0.0259075	0	0	-0.340099	-0.103075	0.0570693	0.613051	-0.573469	0.444871	0.994313	0.746865	0	0	0.415827	-0.367507	0.0242006	1.29291	1.5708	0	0
1.7	0.310079	1.27963	-1.99442	0.802177	-0.0613941	0.934011	0.145739	-0.258979	0.0280829	1.45791	-0.0662972	0	0	-0.0336483	0.194913	-0.250777	0.321634	-0.0221392	0	0	-0.340923	-0.0952659	0.0459322	0.606508	-0.56339	0.362848	0.961269	0.203615	0	0	0.416097	-0.368849	0.0233057	1.29052	1.5708	0	0
1.71	0.295297	1.27831	-1.96964	0.803355	-0.0719234	0.936705	0.171546	-0.250724	0.0338234	1.46345	-0.0385914	0	0	-0.0570398	0.193342	-0.240454	0.310411	-0.0196962	0	0	-0.34488	-0.0854387	0.0326634	0.620588	-0.565048	0.44477	0.985409	0.73404	0	0	0.414792	-0.37134	0.0210943	1.28834	1.5708	0	0
1.72	0.282822	1.27779	-1.94575	0.804656	-0.0824137	0.93938	0.195581	-0.243768	0.0363003	1.46222	-0.0118786	0	0	-0.080018	0.191701	-0.228755	0.297657	-0.0190716	0	0	-0.347507	-0.0770379	0.0188999	0.623647	-0.561763	0.446716	0.982367	0.731794	0	0	0.414509	-0.373492	0.020572	1.28668	1.5708	0	0
1.73	0.268437	1.27736	-1.9191	0.806071	-0.092665	0.942034	0.217205	-0.237097	0.0354609	1.45509	0.0147018	0	0	-0.102752	0.189067	-0.216117	0.284713	-0.0196012	0	0	-0.350786	-0.0676654	0.00475561	0.626745	-0.559289	0.44833	0.979847	0.731561	0	0	0.414441	-0.374535	0.0188655	1.28576	1.5708	0	0
1.74	0.253686	1.27732	-1.89157	0.807471	-0.10271	0.944532	0.237924	-0.230713	0.0322086	1.44308	0.0396452	0	0	-0.124076	0.185625	-0.202946	0.272871	-0.0205557	0	0	-0.354095	-0.0578925	-0.00917325	0.629464	-0.557596	0.448418	0.978547	0.73305	0	0	0.415076	-0.374365	0.0162702	1.28494	1.5708	0	0
1.75	0.238925	1.27745	-1.86372	0.808914	-0.11257	0.946901	0.257332	-0.225145	0.0265048	1.42508	0.0569056	0	0	-0.144434	0.181799	-0.188462	0.261572	-0.0207378	0	0	-0.35772	-0.0479485	-0.0228514	0.63168	-0.556895	0.447831	0.978459	0.733865	0	0	0.416867	-0.374129	0.0149001	1.28412	1.5708	0	0
1.76	0.223431	1.27719	-1.83544	0.810311	-0.122258	0.949224	0.274802	-0.220442	0.0175473	1.40251	0.0716068	0	0	-0.164701	0.177248	-0.174106	0.250673	-0.0207726	0	0	-0.362333	-0.0382776	-0.0353516	0.632699	-0.557556	0.44743	0.980533	0.734045	0	0	0.419922	-0.375354	0.0189603	1.2841	1.5708	0	0
